HIERARCHY
ROOT Hips
{
  OFFSET 0 0 0
  CHANNELS 6 Xposition Yposition Zposition Zrotation Xrotation Yrotation
  JOINT Spine
  {
    OFFSET 0.00000000 0.00000000 0.00000000
    CHANNELS 3 Zrotation Xrotation Yrotation
    JOINT Spine1
    {
      OFFSET 0.19000000 0.00000000 0.00000000
      CHANNELS 3 Zrotation Xrotation Yrotation
      JOINT Neck
      {
        OFFSET 0.22500000 0.00600000 0.00000000
        CHANNELS 3 Zrotation Xrotation Yrotation
        JOINT Head
        {
          OFFSET 0.14000000 0.00030878 0.00000000
          CHANNELS 3 Zrotation Xrotation Yrotation
          End Site
          {
            OFFSET 0.17000000 0.00000000 0.00000000
          }
        }
      }
      JOINT LeftShoulder
      {
        OFFSET 0.19800000 0.03700000 0.04300000
        CHANNELS 3 Zrotation Xrotation Yrotation
        JOINT LeftArm
        {
          OFFSET 0.08000000 0.00000000 0.00000000
          CHANNELS 3 Zrotation Xrotation Yrotation
          JOINT LeftForeArm
          {
            OFFSET 0.15200000 0.00000000 0.00000000
            CHANNELS 3 Zrotation Xrotation Yrotation
            JOINT LeftHand
            {
              OFFSET 0.17800000 0.00000000 0.00000000
              CHANNELS 3 Zrotation Xrotation Yrotation
              End Site
              {
                OFFSET 0.07200000 0.00000000 0.00000000
              }
            }
          }
        }
      }
      JOINT RightShoulder
      {
        OFFSET 0.19800000 0.03700000 -0.04300000
        CHANNELS 3 Zrotation Xrotation Yrotation
        JOINT RightArm
        {
          OFFSET 0.08000000 0.00000000 0.00151654
          CHANNELS 3 Zrotation Xrotation Yrotation
          JOINT RightForeArm
          {
            OFFSET 0.15200000 0.00000000 0.00000000
            CHANNELS 3 Zrotation Xrotation Yrotation
            JOINT RightHand
            {
              OFFSET 0.17800000 0.00000000 0.00000000
              CHANNELS 3 Zrotation Xrotation Yrotation
              End Site
              {
                OFFSET 0.07200000 0.00000000 0.00000000
              }
            }
          }
        }
      }
    }
  }
  JOINT LeftUpLeg
  {
    OFFSET 0.05984250 -0.07666000 0.04788790
    CHANNELS 3 Zrotation Xrotation Yrotation
    JOINT LeftLeg
    {
      OFFSET 0.16000000 0.00000000 0.00000000
      CHANNELS 3 Zrotation Xrotation Yrotation
      JOINT LeftFoot
      {
        OFFSET 0.18000000 0.00000000 0.00000000
        CHANNELS 3 Zrotation Xrotation Yrotation
        End Site
        {
          OFFSET 0.00000000 -0.10800000 0.00000000
        }
      }
    }
  }
  JOINT RightUpLeg
  {
    OFFSET 0.05984250 -0.07665980 -0.04788790
    CHANNELS 3 Zrotation Xrotation Yrotation
    JOINT RightLeg
    {
      OFFSET 0.16000000 0.00000000 0.00000000
      CHANNELS 3 Zrotation Xrotation Yrotation
      JOINT RightFoot
      {
        OFFSET 0.18000000 0.00000000 0.00000000
        CHANNELS 3 Zrotation Xrotation Yrotation
        End Site
        {
          OFFSET 0.00000000 -0.10800000 0.00000000
        }
      }
    }
  }
  JOINT Tail
  {
    OFFSET 0.06836960 -0.00722574 0.00000000
    CHANNELS 3 Zrotation Xrotation Yrotation
    JOINT Tail1
    {
      OFFSET 0.12000000 0.00000000 0.00000000
      CHANNELS 3 Zrotation Xrotation Yrotation
      End Site
      {
        OFFSET 0.12000000 0.00000000 0.00000000
      }
    }
  }
}
MOTION
Frames:	13
Frame Time:	0.0166667
0.0000000 0.4698340 0.0000000 1.64804 4.11664 -0.11834 -171.903 0.0338152 -14.4499 -10.8584 -3.93275 22.2124 -4.2429 -13.8234 30.0231 -98.3699 54.9187 123.6 -110.713 -37.5168 -137.195 129.475 -38.5445 -117.769 -52.9491 15.2977 -9.19448 -11.6993 3.68657 -20.4244 77.2772 -26.9483 44.3241 30.8629 -53.6292 -42.9718 -56.947 -18.7154 -1.52223 -15.6394 -0.486584 7.06728 -122.639 -4.15909 -12.0839 75.6025 12.6032 6.11149 47.6941 -3.74549 -6.78893 -132.379 7.11318 -0.453659 67.2146 -5.32493 -8.44302 54.0543 2.12602 -0.353753 -53.2079 55.7877 -11.7503 -7.58943 -55.0103 -4.99488 
-0.0001099 0.4697900 -0.0001439 1.69700 4.08533 -0.08638 -171.945 -0.069733 -14.1635 -10.8152 -3.95246 21.7621 -4.28429 -13.7377 30.0773 -98.7057 54.3251 123.956 -110.676 -37.4459 -137.234 128.69 -38.2934 -117.697 -52.8982 16.1472 -9.85026 -11.7466 3.5951 -20.0825 77.2498 -27.0891 44.5957 29.8882 -53.6657 -44.379 -56.4562 -18.1988 -1.43334 -15.7352 -0.686936 7.62401 -122.631 -4.13316 -12.1718 75.4953 12.9038 6.19105 47.7109 -3.79114 -6.84371 -132.465 7.08111 -0.410192 67.3143 -5.41411 -8.46789 54.0756 2.14331 -0.343085 -53.3084 55.8743 -11.7318 -7.61516 -55.0187 -5.04189 
-0.0001521 0.4698670 -0.0003245 1.65707 4.08429 -0.10258 -171.732 -0.165513 -14.1649 -11.02 -4.0443 21.6919 -4.14339 -13.6741 30.1495 -98.7881 54.3798 123.96 -110.765 -37.6101 -137.156 128.707 -38.574 -117.645 -53.0535 15.7325 -9.7687 -11.6764 3.68488 -20.3983 77.2804 -26.9777 44.418 29.4948 -54.0883 -44.0832 -56.6594 -17.7974 -1.65077 -15.5186 -0.834942 8.17474 -122.507 -4.11551 -12.2302 75.4137 13.1498 6.25113 47.6362 -3.83331 -6.89991 -132.383 7.07191 -0.460694 67.2376 -5.47308 -8.44527 54.1517 2.15327 -0.337647 -53.2722 55.8515 -11.7193 -7.71258 -54.9785 -5.1277 
-0.0002242 0.4697760 -0.0002044 1.76165 4.13677 -0.05425 -171.729 -0.0925336 -13.8266 -11.2848 -3.95999 21.2858 -3.89776 -13.8984 30.2428 -98.4709 54.1 123.767 -110.861 -37.7095 -137.217 128.298 -38.3386 -117.31 -52.7276 15.647 -10.0377 -12.1655 3.73022 -20.1404 77.2478 -26.8592 43.9625 30.3001 -54.4694 -42.8635 -57.0955 -18.0184 -1.7327 -15.3107 -0.817974 8.3532 -122.652 -4.08559 -12.141 75.5292 12.9127 6.17769 47.4962 -3.80122 -6.86784 -132.44 7.10582 -0.517223 67.0711 -4.9073 -8.39994 54.1019 2.03756 -0.443001 -53.19 55.8502 -11.9325 -7.79013 -54.6565 -5.28611 
-0.0001451 0.4697490 -0.0000704 1.78419 4.12464 0.01100 -171.769 -0.083905 -13.6424 -11.3225 -3.93609 21.085 -3.76929 -13.9599 30.3574 -98.3582 54.203 123.609 -110.879 -37.6981 -137.284 128.283 -38.3465 -117.415 -52.6621 15.7512 -10.008 -12.3149 3.71783 -20.0376 77.1992 -26.8414 43.717 30.574 -54.6182 -42.536 -57.2234 -17.8759 -1.696 -15.0445 -0.846514 8.53292 -122.728 -4.12218 -12.1056 75.5957 12.7407 6.16606 47.4635 -3.77828 -6.83864 -132.467 7.0948 -0.50522 67.0747 -5.04118 -8.41607 54.1034 2.0637 -0.417322 -53.1064 55.9123 -12.0663 -7.82066 -54.3281 -5.41868 
0.0001188 0.4697670 -0.0001704 1.75211 4.07397 0.03722 -171.923 -0.167578 -13.6271 -11.0262 -3.97492 21.0466 -3.8794 -13.8187 30.3104 -98.5098 54.1007 123.901 -110.836 -37.7207 -137.132 128.554 -38.5022 -117.624 -52.7959 15.5703 -9.78402 -12.1437 3.71425 -20.1515 77.2342 -26.8974 44.0119 29.553 -54.3706 -43.6108 -56.6885 -17.8194 -1.68465 -15.2716 -0.863049 8.49914 -122.647 -4.20468 -12.2513 75.4817 12.7799 6.31588 47.3386 -3.78564 -6.8537 -132.48 7.09211 -0.429298 67.1738 -5.02327 -8.42714 53.9694 2.05518 -0.411202 -53.0011 55.9737 -12.1742 -7.7965 -53.9724 -5.49014 
0.0003660 0.4696930 -0.0003704 1.65491 3.99167 0.05836 -171.955 -0.217444 -13.5871 -10.8292 -3.96512 20.9338 -4.0109 -13.7435 30.2869 -98.6366 54.0213 124.08 -110.89 -37.8122 -137.102 128.356 -38.2629 -117.42 -52.6469 15.7478 -10.0148 -12.2005 3.66086 -19.8806 77.2987 -26.9223 44.3417 28.8443 -54.1912 -44.3592 -56.3461 -17.7869 -1.67985 -15.4222 -0.874852 8.46748 -122.468 -4.30285 -12.3651 75.3609 12.9165 6.44653 47.1452 -3.80851 -6.88951 -132.449 7.08703 -0.333109 67.2857 -5.02078 -8.45104 53.8911 2.05642 -0.405556 -52.8359 56.0237 -12.2538 -7.73773 -53.6539 -5.49173 
0.0003890 0.4694170 -0.0004742 1.65770 3.92596 0.06386 -172.046 -0.172854 -13.683 -10.746 -3.93584 21.0638 -4.04052 -13.8399 30.2746 -98.5354 54.1979 123.859 -110.934 -37.8359 -137.171 128.365 -38.0091 -117.143 -52.3652 15.892 -10.1857 -12.341 3.6288 -19.6743 77.2108 -27.0074 44.2171 29.3519 -54.2303 -43.8264 -56.5092 -17.8218 -1.65462 -15.2549 -0.840056 8.37834 -122.427 -4.33321 -12.2373 75.3602 12.9755 6.37653 46.9823 -3.80494 -6.88356 -132.494 7.05988 -0.313053 67.3078 -5.04627 -8.44445 53.8977 2.06432 -0.402307 -52.806 56.0401 -12.2695 -7.66349 -53.4703 -5.44939 
0.0004814 0.4694280 -0.0005906 1.59999 3.85178 0.07729 -171.942 -0.171415 -13.8932 -10.8244 -4.00617 21.4217 -4.11161 -13.8836 30.08 -98.4697 54.2442 123.759 -110.823 -37.7302 -137.081 128.917 -38.2256 -117.227 -52.4806 15.7097 -9.86879 -12.0961 3.60963 -19.7827 77.104 -27.1146 44.0781 29.9389 -54.2598 -43.3046 -56.7297 -17.8787 -1.62828 -15.1123 -0.788116 8.19836 -122.323 -4.31572 -11.9763 75.3629 12.8779 6.22153 46.8615 -3.77539 -6.84816 -132.513 7.02633 -0.265951 67.4535 -4.8744 -8.4116 53.7706 2.02335 -0.435982 -52.733 56.0654 -12.2638 -7.57349 -53.3906 -5.35607 
0.0005770 0.4696820 -0.0008086 1.48666 3.81645 0.05884 -171.792 -0.214903 -14.1153 -10.8448 -4.0761 21.6881 -4.23438 -13.831 29.9097 -98.5612 54.167 123.866 -110.775 -37.693 -137.027 129.522 -38.5672 -117.434 -52.7088 15.3906 -9.47661 -11.6856 3.64482 -20.2142 77.1525 -27.1277 44.3078 29.6102 -54.1699 -43.6216 -56.5992 -17.8688 -1.66861 -15.2364 -0.766648 8.05202 -122.222 -4.30179 -11.9323 75.3531 12.8935 6.19007 46.9957 -3.77687 -6.84728 -132.461 6.99747 -0.266616 67.6382 -4.65631 -8.34458 53.6056 1.97218 -0.479432 -52.6153 56.0692 -12.2779 -7.46209 -53.3932 -5.22537 
0.0005069 0.4697490 -0.0009572 1.51883 3.85019 0.00422 -171.844 -0.196131 -14.2828 -10.8156 -4.06847 21.8264 -4.31781 -13.8395 29.8346 -98.5298 54.2371 123.85 -110.803 -37.7073 -137.072 129.6 -38.542 -117.334 -52.6291 15.4311 -9.54649 -11.6129 3.66612 -20.3675 77.1701 -27.135 44.3982 29.4104 -54.2303 -43.6988 -56.5423 -17.7959 -1.70928 -15.2851 -0.796994 8.13111 -122.313 -4.28535 -11.9933 75.4115 12.8347 6.2019 47.104 -3.77115 -6.84081 -132.473 6.99426 -0.331547 67.6026 -4.62473 -8.32197 53.6468 1.9686 -0.487519 -52.6008 56.0219 -12.3538 -7.37493 -53.4488 -5.10032 
0.0004014 0.4696970 -0.0007376 1.56193 3.88246 0.01310 -171.75 -0.142828 -14.2633 -11.0025 -4.04055 21.8196 -4.31845 -13.9505 29.824 -98.3549 54.3729 123.641 -110.848 -37.7261 -137.153 129.124 -38.2898 -117.014 -52.4867 15.7972 -9.9466 -11.8369 3.61938 -20.0098 77.1238 -27.1595 44.2785 29.8989 -54.4582 -43.2051 -56.9028 -17.7066 -1.7246 -15.074 -0.811743 8.22152 -122.364 -4.27117 -11.9378 75.4695 12.6361 6.15195 47.05 -3.74043 -6.8065 -132.46 6.99545 -0.353108 67.4334 -4.85741 -8.36598 53.8456 2.02041 -0.447386 -52.5991 56.015 -12.4108 -7.36528 -53.5583 -5.04639 
0.0003525 0.4696710 -0.0004216 1.62495 3.96044 0.01201 -171.62 -0.139203 -14.1762 -11.2504 -4.04556 21.6862 -4.1947 -14.0263 29.9217 -98.2982 54.3718 123.495 -110.886 -37.7438 -137.219 128.86 -38.3958 -117.17 -52.6598 15.8066 -9.88174 -11.944 3.65189 -20.0699 77.1618 -27.1115 44.3014 30.0374 -54.5212 -43.1827 -57.0728 -17.7263 -1.74548 -15.0415 -0.789997 8.1548 -122.407 -4.22737 -11.9967 75.4245 12.6107 6.17482 47.0637 -3.73519 -6.79993 -132.457 7.04067 -0.377045 67.2694 -5.1168 -8.4178 54.0517 2.07923 -0.398922 -52.5817 55.9867 -12.5252 -7.41451 -53.6267 -5.06393 
